<?xml version="1.0" encoding="UTF-8"?>
<svg width="66px" height="66px" viewBox="0 0 66 66" version="1.1" xmlns="http://www.w3.org/2000/svg" xmlns:xlink="http://www.w3.org/1999/xlink">
    <!-- Generator: Sketch 52.6 (67491) - http://www.bohemiancoding.com/sketch -->
    <title>iocn_loading</title>
    <desc>Created with Sketch.</desc>
    <g id="组件规范" stroke="none" stroke-width="1" fill="none" fill-rule="evenodd">
        <g id="06-toast提示" transform="translate(-177.000000, -275.000000)">
            <g id="toast/icon+loading" transform="translate(100.000000, 228.000000)">
                <g id="iocn/loading" transform="translate(74.000000, 44.000000)">
                    <g>
                        <rect id="矩形" x="0" y="0" width="72" height="72"></rect>
                        <g id="编组" transform="translate(3.000000, 3.000000)" fill-rule="nonzero">
                            <path d="M33.66,6.75015599e-14 C35.4514286,6.75015599e-14 36.96,1.2672 36.96,2.772 L36.96,13.068 C36.96,14.5728 35.4514286,15.84 33.66,15.84 C31.8685714,15.84 30.36,14.5728 30.36,13.068 L30.36,2.772 C30.36,1.2672 31.8685714,6.75015599e-14 33.66,6.75015599e-14 Z" id="Shape" fill="#E9E9E9"></path>
                            <path d="M48.7964432,3.02447034 C50.1280339,3.81678467 50.5196782,5.48064478 49.8147184,6.82757915 L44.7233423,15.7807311 C43.9400536,17.1276655 42.2951475,17.5238227 40.9635568,16.8107398 C39.6319661,16.0184254 39.2403218,14.3545653 39.9452816,13.007631 L45.0366577,4.05447897 C45.8199464,2.7075446 47.4648525,2.232156 48.7964432,3.02447034 Z" id="Shape" fill="#989697"></path>
                            <path d="M60.3364597,15.8790769 C61.1268574,17.2062927 60.6526188,18.8457945 59.3089428,19.6265096 L50.3774491,24.7011582 C49.0337731,25.4818733 47.3739379,25.0134442 46.5835403,23.6862285 C45.7931426,22.3590127 46.2673812,20.7195109 47.6110572,19.9387957 L56.5425509,14.8641472 C57.8862269,14.1615035 59.6251018,14.5518611 60.3364597,15.8790769 Z" id="Shape" fill="#9B999A"></path>
                            <path d="M66,33.66 C66,35.4514286 64.7328,36.96 63.228,36.96 L52.932,36.96 C51.4272,36.96 50.16,35.4514286 50.16,33.66 C50.16,31.8685714 51.4272,30.36 52.932,30.36 L63.228,30.36 C64.7328,30.36 66,31.8685714 66,33.66 Z" id="Shape" fill="#A3A1A2"></path>
                            <path d="M60.3355297,48.7964432 C59.5432153,50.1280339 57.8793552,50.5196782 56.5324208,49.8147184 L47.5792689,44.7233423 C46.2323345,43.9400536 45.8361773,42.2951475 46.5492602,40.9635568 C47.3415746,39.6319661 49.0054347,39.2403218 50.352369,39.9452816 L59.305521,45.0366577 C60.6524554,45.8199464 61.127844,47.4648525 60.3355297,48.7964432 Z" id="Shape" fill="#ABA9AA"></path>
                            <path d="M48.8009231,60.3364597 C47.4737073,61.1268574 45.8342055,60.6526188 45.0534904,59.3089428 L39.9788418,50.3774491 C39.1981267,49.0337731 39.6665558,47.3739379 40.9937715,46.5835403 C42.3209873,45.7931426 43.9604891,46.2673812 44.7412043,47.6110572 L49.8158528,56.5425509 C50.5184965,57.8862269 50.1281389,59.6251018 48.8009231,60.3364597 Z" id="Shape" fill="#B2B2B2"></path>
                            <path d="M33.66,66 C31.8685714,66 30.36,64.7328 30.36,63.228 L30.36,52.932 C30.36,51.4272 31.8685714,50.16 33.66,50.16 C35.4514286,50.16 36.96,51.4272 36.96,52.932 L36.96,63.228 C36.96,64.7328 35.4514286,66 33.66,66 Z" id="Shape" fill="#BAB8B9"></path>
                            <path d="M15.8835568,60.3355297 C14.5519661,59.5432153 14.1603218,57.8793552 14.8652816,56.5324208 L19.9566577,47.5792689 C20.7399464,46.2323345 22.3848525,45.8361773 23.7164432,46.5492602 C25.0480339,47.3415746 25.4396782,49.0054347 24.7347184,50.352369 L19.6433423,59.305521 C18.8600536,60.6524554 17.2151475,61.127844 15.8835568,60.3355297 Z" id="Shape" fill="#C2C0C1"></path>
                            <path d="M3.02354028,48.8009231 C2.23314261,47.4737073 2.70738121,45.8342055 4.05105725,45.0534904 L12.9825509,39.9788418 C14.3262269,39.1981267 15.9860621,39.6665558 16.7764597,40.9937715 C17.5668574,42.3209873 17.0926188,43.9604891 15.7489428,44.7412043 L6.81744909,49.8158528 C5.47377305,50.5184965 3.73489818,50.1281389 3.02354028,48.8009231 Z" id="Shape" fill="#CBCBCB"></path>
                            <path d="M7.28306304e-14,33.66 C7.28306304e-14,31.8685714 1.2672,30.36 2.772,30.36 L13.068,30.36 C14.5728,30.36 15.84,31.8685714 15.84,33.66 C15.84,35.4514286 14.5728,36.96 13.068,36.96 L2.772,36.96 C1.2672,36.96 7.28306304e-14,35.4514286 7.28306304e-14,33.66 Z" id="Shape" fill="#D2D2D2"></path>
                            <path d="M3.02447034,15.8835568 C3.81678467,14.5519661 5.48064478,14.1603218 6.82757915,14.8652816 L15.7807311,19.9566577 C17.1276655,20.7399464 17.5238227,22.3848525 16.8107398,23.7164432 C16.0184254,25.0480339 14.3545653,25.4396782 13.007631,24.7347184 L4.05447897,19.6433423 C2.7075446,18.8600536 2.232156,17.2151475 3.02447034,15.8835568 Z" id="Shape" fill="#DADADA"></path>
                            <path d="M15.8790769,3.02354028 C17.2062927,2.23314261 18.8457945,2.70738121 19.6265096,4.05105725 L24.7011582,12.9825509 C25.4818733,14.3262269 25.0134442,15.9860621 23.6862285,16.7764597 C22.3590127,17.5668574 20.7195109,17.0926188 19.9387957,15.7489428 L14.8641472,6.81744909 C14.1615035,5.47377305 14.5518611,3.73489818 15.8790769,3.02354028 Z" id="Shape" fill="#E2E2E2"></path>
                        </g>
                    </g>
                </g>
            </g>
        </g>
    </g>
</svg>